<svg xmlns="http://www.w3.org/2000/svg" version="1.1" xmlns:xlink="http://www.w3.org/1999/xlink" xmlns:svgjs="http://svgjs.dev/svgjs" width="1500" height="1500" viewBox="0 0 1500 1500"><rect width="1500" height="1500" fill="#000000"></rect><g transform="matrix(0.6666666666666666,0,0,0.6666666666666666,249.39393939393938,435.99032258064517)"><svg viewBox="0 0 396 248" data-background-color="#ffffff" preserveAspectRatio="xMidYMid meet" height="939" width="1500" xmlns="http://www.w3.org/2000/svg" xmlns:xlink="http://www.w3.org/1999/xlink"><g id="tight-bounds" transform="matrix(1,0,0,1,0.2400000000000091,0.4000000000000057)"><svg viewBox="0 0 395.52 247.2" height="247.2" width="395.52"><g><svg></svg></g><g><svg viewBox="0 0 395.52 247.2" height="247.2" width="395.52"><g transform="matrix(1,0,0,1,75.54432,50.98762692971472)"><svg viewBox="0 0 244.43135999999998 145.22474614057055" height="145.22474614057055" width="244.43135999999998"><g><svg viewBox="0 0 244.43135999999998 145.22474614057055" height="145.22474614057055" width="244.43135999999998"><g><svg viewBox="0 0 244.43135999999998 145.22474614057055" height="145.22474614057055" width="244.43135999999998"><g transform="matrix(1,0,0,1,0,89.75471924273774)"><svg viewBox="0 0 244.43135999999998 55.47002689783282" height="55.47002689783282" width="244.43135999999998"><g id="textblocktransform"><svg viewBox="0 0 244.43135999999998 55.47002689783282" height="55.47002689783282" width="244.43135999999998" id="textblock"><g><svg viewBox="0 0 244.43135999999998 55.47002689783282" height="55.47002689783282" width="244.43135999999998"><g transform="matrix(1,0,0,1,0,0)"><svg width="244.43135999999998" viewBox="1.95 -35.3 157.70000000000002 35.79" height="55.47002689783282" data-palette-color="#4790fc"><path d="M1.95-25.22L6.45-25.22 8.96-22.58Q9.23-23.19 9.66-23.74 10.08-24.29 10.66-24.71 11.23-25.12 11.95-25.37 12.67-25.61 13.53-25.61L13.53-25.61Q14.23-25.61 14.89-25.5 15.55-25.39 16.33-25.12L16.33-25.12Q16.36-25.07 16.39-24.73 16.43-24.39 16.43-23.88L16.43-23.88Q16.43-23.49 16.38-22.96 16.33-22.44 16.22-21.89 16.11-21.34 15.91-20.8 15.7-20.26 15.38-19.87L15.38-19.87 14.92-19.75Q14.43-20 13.83-20.17 13.23-20.34 12.6-20.34L12.6-20.34Q11.62-20.34 10.96-20.2 10.3-20.07 9.89-19.92L9.89-19.92Q9.4-19.75 9.11-19.53L9.11-19.53 9.11 0 3.88 0 3.88-20.48 1.95-22.46 1.95-25.22ZM23.39-29.17L23.39-29.17Q22.7-29.17 22.1-29.42 21.51-29.66 21.05-30.08 20.6-30.49 20.33-31.04 20.07-31.59 20.07-32.23L20.07-32.23Q20.07-32.89 20.33-33.45 20.6-34.01 21.05-34.42 21.51-34.84 22.1-35.07 22.7-35.3 23.39-35.3L23.39-35.3Q24.07-35.3 24.68-35.07 25.29-34.84 25.74-34.42 26.19-34.01 26.46-33.45 26.73-32.89 26.73-32.23L26.73-32.23Q26.73-31.59 26.46-31.04 26.19-30.49 25.74-30.08 25.29-29.66 24.68-29.42 24.07-29.17 23.39-29.17ZM20.58-4.2L20.58-24.95 25.66-24.95 25.66-4.1 27.1-3.08 27.1 0 25.71 0 25.66-0.05 25.66 0Q23.24 0 21.91-0.98 20.58-1.95 20.58-4.2L20.58-4.2ZM31.78-12.52L31.78-12.52Q31.78-15.75 32.56-18.2 33.34-20.65 34.85-22.31 36.35-23.97 38.53-24.82 40.72-25.66 43.53-25.66L43.53-25.66Q44.55-25.66 45.6-25.46 46.65-25.27 47.5-25.05L47.5-25.05Q48.48-24.78 49.41-24.44L49.41-24.44Q49.34-23.75 49.19-23.02L49.19-23.02Q49.07-22.39 48.84-21.64 48.6-20.9 48.26-20.19L48.26-20.19Q47.6-20.46 46.85-20.7L46.85-20.7Q46.19-20.9 45.33-21.07 44.48-21.24 43.53-21.24L43.53-21.24Q41.89-21.24 40.68-20.64 39.47-20.04 38.67-18.91 37.86-17.77 37.47-16.16 37.08-14.55 37.08-12.55L37.08-12.55Q37.08-8.15 38.78-5.88 40.47-3.61 43.77-3.61L43.77-3.61Q44.75-3.61 45.62-3.77 46.5-3.93 47.21-4.13L47.21-4.13Q48.02-4.37 48.73-4.66L48.73-4.66Q48.97-4.13 49.16-3.49L49.16-3.49Q49.34-2.93 49.47-2.21 49.6-1.49 49.58-0.66L49.58-0.66Q48.68-0.34 47.7-0.07L47.7-0.07Q46.87 0.15 45.83 0.32 44.79 0.49 43.77 0.49L43.77 0.49Q38.03 0.49 34.91-2.78 31.78-6.05 31.78-12.52ZM54.12 0L54.12-35.16 59.37-35.16 59.37-26.95 59.12-23.22 59.27-23.22Q59.44-23.36 60.09-23.77 60.73-24.17 61.7-24.58 62.66-25 63.87-25.32 65.08-25.63 66.37-25.63L66.37-25.63Q68.43-25.63 70-25.02 71.57-24.41 72.65-23.28 73.72-22.14 74.27-20.56 74.82-18.97 74.82-16.99L74.82-16.99 74.82 0 69.57 0 69.57-16.48Q69.57-19.14 68.51-20.4 67.45-21.66 65.01-21.66L65.01-21.66Q63.84-21.66 62.82-21.45 61.81-21.24 61.03-20.97L61.03-20.97Q60.12-20.68 59.37-20.29L59.37-20.29 59.37 0 54.12 0ZM82.75-6.98L82.75-21.17 79.56-21.17Q79.53-21.44 79.51-21.75L79.51-21.75Q79.48-22.02 79.47-22.39 79.46-22.75 79.46-23.19L79.46-23.19Q79.46-23.63 79.48-24.01 79.51-24.39 79.56-24.95L79.56-24.95 82.75-24.95 82.75-28.83 85.56-32.01 87.73-32.01 87.73-24.95 94.64-24.95Q94.69-24.71 94.73-24.37 94.77-24.02 94.77-23.71L94.77-23.71Q94.77-23.14 94.66-22.68 94.55-22.22 94.42-21.88L94.42-21.88Q94.28-21.48 94.08-21.17L94.08-21.17 87.73-21.17 87.73-7.01Q87.73-5.22 88.33-4.42 88.93-3.61 90.25-3.61L90.25-3.61Q90.81-3.61 91.43-3.75 92.06-3.88 92.62-4.08L92.62-4.08Q93.25-4.3 93.91-4.57L93.91-4.57Q94.4-3.93 94.68-3.32 94.96-2.71 95.08-2.22L95.08-2.22Q95.23-1.66 95.25-1.17L95.25-1.17Q94.57-0.71 93.72-0.34L93.72-0.34Q92.96-0.02 91.91 0.23 90.86 0.49 89.49 0.49L89.49 0.49Q87.59 0.49 86.31 0.01 85.02-0.46 84.23-1.4 83.44-2.34 83.1-3.75 82.75-5.15 82.75-6.98L82.75-6.98ZM102.7-29.17L102.7-29.17Q102.01-29.17 101.42-29.42 100.82-29.66 100.37-30.08 99.91-30.49 99.65-31.04 99.38-31.59 99.38-32.23L99.38-32.23Q99.38-32.89 99.65-33.45 99.91-34.01 100.37-34.42 100.82-34.84 101.42-35.07 102.01-35.3 102.7-35.3L102.7-35.3Q103.38-35.3 103.99-35.07 104.6-34.84 105.05-34.42 105.51-34.01 105.77-33.45 106.04-32.89 106.04-32.23L106.04-32.23Q106.04-31.59 105.77-31.04 105.51-30.49 105.05-30.08 104.6-29.66 103.99-29.42 103.38-29.17 102.7-29.17ZM99.89-4.2L99.89-24.95 104.97-24.95 104.97-4.1 106.41-3.08 106.41 0 105.02 0 104.97-0.05 104.97 0Q102.55 0 101.22-0.98 99.89-1.95 99.89-4.2L99.89-4.2ZM123.23 0.49L123.23 0.49Q120.08 0.49 117.81-0.68 115.54-1.86 114.07-4.06 112.61-6.27 111.9-9.45 111.19-12.62 111.19-16.6L111.19-16.6Q111.19-20.48 111.94-23.65 112.68-26.81 114.18-29.04 115.68-31.27 117.94-32.48 120.2-33.69 123.23-33.69L123.23-33.69Q126.43-33.69 128.68-32.58 130.94-31.47 132.37-29.35 133.8-27.22 134.46-24.12 135.12-21.02 135.12-17.04L135.12-17.04Q135.12-13.16 134.41-9.94 133.7-6.71 132.25-4.39 130.8-2.08 128.55-0.79 126.3 0.49 123.23 0.49ZM123.2-3.44L123.2-3.44Q124.86-3.44 126.03-4.53 127.21-5.62 127.95-7.46 128.7-9.3 129.04-11.78 129.38-14.26 129.38-17.04L129.38-17.04Q129.38-20.04 129.04-22.41 128.7-24.78 127.96-26.42 127.23-28.05 126.06-28.92 124.89-29.79 123.23-29.79L123.23-29.79Q121.52-29.79 120.31-28.81 119.1-27.83 118.34-26.07 117.59-24.32 117.25-21.9 116.9-19.48 116.9-16.6L116.9-16.6Q116.9-13.72 117.25-11.3 117.59-8.89 118.34-7.14 119.1-5.4 120.3-4.42 121.49-3.44 123.2-3.44ZM138.21-1.51L138.21-1.51Q138.31-2.08 138.53-2.73L138.53-2.73Q138.73-3.3 139.06-4.04 139.39-4.79 139.95-5.64L139.95-5.64Q141.02-5.1 142.19-4.66L142.19-4.66Q143.22-4.3 144.51-4 145.81-3.71 147.2-3.71L147.2-3.71Q148.66-3.71 149.91-4.2 151.15-4.69 152.07-5.57 152.99-6.45 153.5-7.68 154.01-8.91 154.01-10.42L154.01-10.42Q154.01-11.3 153.64-12.19 153.28-13.09 152.52-13.81 151.76-14.53 150.58-14.98 149.4-15.43 147.76-15.43L147.76-15.43 144.98-15.43Q144.83-16.09 144.75-16.66 144.66-17.24 144.66-17.7L144.66-17.7Q144.66-18.36 144.73-18.87L144.73-18.87Q144.78-19.14 144.83-19.43L144.83-19.43 147.76-19.43Q148.71-19.43 149.57-19.82 150.42-20.21 151.07-20.94 151.72-21.66 152.08-22.67 152.45-23.68 152.45-24.93L152.45-24.93Q152.45-26.03 152.07-26.88 151.69-27.73 151-28.32 150.3-28.91 149.35-29.21 148.4-29.52 147.25-29.52L147.25-29.52Q145.95-29.52 144.79-29.21 143.63-28.91 142.78-28.54L142.78-28.54Q141.75-28.1 140.9-27.59L140.9-27.59Q140.34-28.42 140-29.15 139.66-29.88 139.46-30.44L139.46-30.44Q139.24-31.08 139.17-31.67L139.17-31.67Q140.34-32.23 141.71-32.67L141.71-32.67Q142.88-33.06 144.42-33.37 145.95-33.69 147.71-33.69L147.71-33.69Q152.69-33.69 155.44-31.62 158.19-29.54 158.19-25.34L158.19-25.34Q158.19-23.88 157.8-22.63 157.4-21.39 156.7-20.4 155.99-19.41 154.99-18.7 153.99-17.99 152.77-17.58L152.77-17.58Q154.23-17.24 155.5-16.54 156.77-15.84 157.69-14.86 158.6-13.87 159.13-12.62 159.65-11.38 159.65-9.91L159.65-9.91Q159.65-7.45 158.77-5.52 157.89-3.59 156.28-2.25 154.67-0.9 152.39-0.21 150.1 0.49 147.27 0.49L147.27 0.49Q145.44 0.49 143.79 0.18 142.15-0.12 140.9-0.51L140.9-0.51Q139.44-0.95 138.21-1.51Z" opacity="1" transform="matrix(1,0,0,1,0,0)" fill="#ffffff" class="wordmark-text-0" data-fill-palette-color="primary" id="text-0"></path></svg></g></svg></g></svg></g></svg></g><g transform="matrix(1,0,0,1,82.04691085427923,0)"><svg viewBox="0 0 80.33753829144152 76.65957717280496" height="76.65957717280496" width="80.33753829144152"><g><svg xmlns="http://www.w3.org/2000/svg" xmlns:xlink="http://www.w3.org/1999/xlink" version="1.1" x="0" y="0" viewBox="0 2.2889999999999997 100.00003478060117 95.42189798916631" enable-background="new 0 0 100 100" xml:space="preserve" id="icon-0" width="80.33753829144152" height="76.65957717280496" class="icon-icon-0" data-fill-palette-color="accent"><g fill="#ed2326" data-fill-palette-color="accent"><path d="M99.279 18.508L83.756 2.982C82.833 2.058 81.198 2.058 80.276 2.982L70.62 12.641C69.864 10.041 67.49 8.125 64.652 8.125H6.243A6.25 6.25 0 0 0 0 14.37V60.892A6.25 6.25 0 0 0 6.243 67.135H16.259L13.254 70.141C13.244 70.15 13.235 70.162 13.225 70.17L13.17 70.225C13.092 70.302 13.032 70.389 12.968 70.473A2.4 2.4 0 0 0 12.759 70.793 2.4 2.4 0 0 0 12.613 71.097C12.601 71.128 12.58 71.155 12.57 71.187L4.807 94.471A2.464 2.464 0 0 0 7.92 97.586L31.207 89.824C31.228 89.817 31.246 89.803 31.268 89.795 31.435 89.734 31.597 89.658 31.748 89.563 31.758 89.557 31.768 89.554 31.777 89.548 31.919 89.455 32.051 89.35 32.172 89.23L54.26 67.136H64.652C68.094 67.136 70.893 64.336 70.893 60.893V50.498L85.902 35.487C86.049 35.339 86.169 35.17 86.272 34.993L99.28 21.987A2.46 2.46 0 0 0 99.279 18.508M65.971 60.893C65.971 61.622 65.379 62.214 64.652 62.214H59.182L65.971 55.422zM68.494 21.848L72.937 26.29 22.833 76.408 18.391 71.967zM4.921 60.893V14.37C4.921 13.641 5.513 13.049 6.242 13.049H64.651A1.32 1.32 0 0 1 65.97 14.37V17.318L21.174 62.214H6.243A1.323 1.323 0 0 1 4.921 60.893M11.033 91.359L15.979 76.52 25.872 86.413zM66.693 47.738S66.691 47.738 66.691 47.74L64.021 50.411 30.431 84.008 26.312 79.888 76.418 29.77 80.539 33.89zM84.1 30.205L72.055 18.166 82.016 8.204 94.059 20.247z" fill="#ffffff" data-fill-palette-color="accent"></path><path d="M22.885 27.229C22.885 26.577 22.626 25.952 22.164 25.489L16.247 19.573A2.462 2.462 0 0 0 12.767 23.055L16.943 27.229 12.767 31.405A2.46 2.46 0 0 0 12.767 34.885 2.455 2.455 0 0 0 16.247 34.886L22.164 28.97A2.46 2.46 0 0 0 22.885 27.229" fill="#ffffff" data-fill-palette-color="accent"></path><path d="M26.482 35.606H33.53A2.461 2.461 0 0 0 33.53 30.683H26.482A2.462 2.462 0 0 0 26.482 35.606" fill="#ffffff" data-fill-palette-color="accent"></path></g></svg></g></svg></g><g></g></svg></g></svg></g></svg></g><g><path d="M110.634 37.892A122.216 122.216 0 0 1 284.886 37.892L279.883 37.892A117.213 117.213 0 0 0 115.637 37.892L110.634 37.892M110.634 209.308A122.216 122.216 0 0 0 284.886 209.308L279.883 209.308A117.213 117.213 0 0 1 115.637 209.308L110.634 209.308" fill="#ffffff" stroke="transparent" data-fill-palette-color="tertiary"></path></g></svg></g><defs></defs></svg><rect width="395.52" height="247.2" fill="none" stroke="none" visibility="hidden"></rect></g></svg></g></svg>